<?xml version="1.0" encoding="UTF-8"?>
<svg version="1.1" xmlns="http://www.w3.org/2000/svg" width="500" height="250">
<path d="M0 0 C3.17282395 1.66019858 5.37590133 3.75180266 7 7 C7.10172072 8.3321598 7.14369591 9.6691587 7.15390015 11.00515747 C7.16250061 11.84302795 7.17110107 12.68089844 7.17996216 13.54415894 C7.18422211 14.46560699 7.18848206 15.38705505 7.19287109 16.33642578 C7.20513733 17.79060913 7.20513733 17.79060913 7.21765137 19.27416992 C7.24255211 22.49787785 7.25904367 25.72154122 7.2734375 28.9453125 C7.27876118 30.04882931 7.28408485 31.15234612 7.28956985 32.28930283 C7.31633637 38.14321956 7.33569005 43.99711483 7.35009766 49.85107422 C7.36337556 54.67548849 7.3911091 59.49947363 7.43212891 64.32373047 C7.48176628 70.16164047 7.50625848 75.99916448 7.51332474 81.83727646 C7.51999254 84.05138227 7.53509607 86.26548101 7.55921555 88.47946548 C7.74238025 106.32782494 6.16506575 121.29307516 -5 136 C-5.57234375 136.77730469 -6.1446875 137.55460938 -6.734375 138.35546875 C-15.46668331 149.19621903 -29.25867264 156.91971572 -43 159 C-61.94448508 160.25127555 -78.73562605 157.92058894 -93.6809082 145.21166992 C-104.51751697 135.54859152 -113.17398939 121.69845884 -114.13867188 106.86816406 C-114.92765162 87.39892865 -111.70966377 72.2198128 -98.9375 56.8125 C-90.46988625 47.86966302 -79.91917065 41.98423349 -68 39 C-67.24976563 38.80921875 -66.49953125 38.6184375 -65.7265625 38.421875 C-49.29447175 35.87937385 -34.40123908 38.83359278 -20 47 C-19.67 47.33 -19.34 47.66 -19 48 C-18.98541748 46.8855249 -18.97083496 45.7710498 -18.95581055 44.62280273 C-18.8975792 40.4646084 -18.82034886 36.30694159 -18.73754883 32.14916992 C-18.70441587 30.35401 -18.67634813 28.55874883 -18.65356445 26.76342773 C-18.61980336 24.17387988 -18.56747875 21.58525029 -18.51171875 18.99609375 C-18.50532883 18.20101913 -18.4989389 17.40594452 -18.49235535 16.58677673 C-18.33852499 10.67841529 -17.43124823 5.50305725 -13.1484375 1.09375 C-8.97186233 -1.03250645 -4.54156669 -0.72192534 0 0 Z M-81.77734375 76.1015625 C-87.88059 84.54761966 -90.06564876 93.66912731 -89 104 C-87.15114916 114.26112214 -82.00042174 122.3931521 -73.546875 128.4921875 C-64.59792009 133.79018841 -55.10551324 135.54348552 -44.9609375 133.33984375 C-35.06538542 130.44633422 -27.63588054 125.30110488 -22.21875 116.453125 C-17.33170984 106.61639032 -16.58059709 96.77033387 -20.02734375 86.4140625 C-24.23519953 75.97046865 -31.10748773 69.37756262 -41.3515625 64.9453125 C-55.90209627 59.75175915 -71.8521938 64.36589069 -81.77734375 76.1015625 Z " fill="#888888" transform="translate(239,45)"/>
<path d="M0 0 C11.39007806 9.52379838 19.40074553 23.39376586 21.5 38.12109375 C22.91930777 56.62146201 19.44756338 73.30565141 7.625 88.05859375 C6.61545917 89.11120833 5.5708279 90.13089289 4.5 91.12109375 C3.81808594 91.76175781 3.13617188 92.40242188 2.43359375 93.0625 C-9.26369117 103.21813287 -23.37303253 108.54468047 -38.8125 108.43359375 C-39.64209229 108.4279541 -40.47168457 108.42231445 -41.32641602 108.41650391 C-58.45019863 108.07999217 -73.06525174 100.90754252 -84.91015625 88.62109375 C-97.94123121 73.65384905 -100.45113421 57.93603454 -99.6953125 38.81689453 C-99.28708719 33.18236464 -97.82199214 28.28188506 -95.5 23.12109375 C-95.09910156 22.19683594 -94.69820313 21.27257812 -94.28515625 20.3203125 C-86.60137732 4.57413365 -73.56494281 -4.95309209 -57.4453125 -10.93359375 C-37.60481563 -17.30149858 -16.31243779 -12.25981652 0 0 Z M-65.46875 22.9375 C-72.4135692 30.220732 -75.60683828 39.09355787 -75.5 49.12109375 C-74.78882582 59.66765558 -70.23971531 68.34960249 -62.55859375 75.5859375 C-54.2093287 81.81223952 -44.72057047 83.92562845 -34.5 83.12109375 C-24.96483628 81.40068195 -16.84538162 76.63094577 -10.78125 69.05078125 C-4.95344131 60.27353279 -3.67766709 51.49423604 -4.5 41.12109375 C-6.40020154 32.38703486 -10.70594799 24.61176287 -18 19.30078125 C-34.0177718 9.43268969 -51.32851965 9.89145414 -65.46875 22.9375 Z " fill="#9C588A" transform="translate(99.5,95.87890625)"/>
<path d="M0 0 C12.41682334 9.39805436 22.13318259 23.53066252 24.3046875 39.18359375 C25.05156011 49.89099064 25.52637276 61.13628546 21.3046875 71.18359375 C20.85222656 72.28703125 20.39976562 73.39046875 19.93359375 74.52734375 C12.81484347 90.23297987 1.54150744 100.65378245 -14.5703125 107.05859375 C-28.97824487 112.40404286 -46.50357801 112.15720055 -60.6953125 106.18359375 C-76.38127016 98.7177742 -87.92284855 86.75411329 -94.09643555 70.51098633 C-99.46445859 54.66451888 -97.99717046 37.18700981 -91.0703125 22.12109375 C-83.13127756 7.19882906 -70.85635236 -2.95935582 -55.0703125 -8.78515625 C-36.23236888 -14.43653934 -16.16187623 -10.8916992 0 0 Z M-65.6953125 29.18359375 C-71.52870497 39.67465617 -73.31165186 49.05501899 -70.1328125 60.68359375 C-66.82117135 70.60693804 -61.01752208 77.40768342 -51.6953125 82.18359375 C-41.566877 86.51731656 -31.81965845 86.30673228 -21.5546875 82.50390625 C-12.59652711 78.36748793 -6.52943993 71.80729308 -2.6640625 62.7734375 C0.57020043 53.32519719 0.50038901 43.31623736 -3.6953125 34.18359375 C-10.21175395 23.30818133 -16.36519271 18.318476 -28.48828125 14.91015625 C-42.5785618 11.71796114 -56.95783356 17.7887307 -65.6953125 29.18359375 Z " fill="#888888" transform="translate(475.6953125,93.81640625)"/>
<path d="M0 0 C12.28361134 9.55935756 21.24927088 22.4809368 24 38 C25.05455551 50.25386572 25.1099565 62.64276125 20 74 C19.59910156 74.92425781 19.19820313 75.84851563 18.78515625 76.80078125 C11.10137732 92.5469601 -1.93505719 102.07418584 -18.0546875 108.0546875 C-32.82731648 112.79603526 -50.36431545 111.12328707 -64.203125 104.45703125 C-79.78664345 95.90175793 -90.69934059 82.66185637 -95.8125 65.5625 C-100.08454853 46.64342793 -96.1710151 29.17916859 -86 13 C-77.49032349 0.67767397 -62.8386872 -7.62855266 -48.34716797 -10.62060547 C-31.23429728 -13.3867175 -14.16707805 -10.14432749 0 0 Z M-66 29 C-71.4365335 37.76588347 -73.20064829 47.57599883 -71.375 57.75 C-69.40310884 64.94938784 -65.65745459 71.13195768 -60 76 C-59.42507813 76.50402344 -58.85015625 77.00804687 -58.2578125 77.52734375 C-50.93616714 83.54050229 -43.1409251 85.59948198 -33.7265625 85.28125 C-23.38824733 84.21483354 -14.88501607 79.77826911 -8.1875 71.8125 C-1.83171574 62.95874472 0.27849219 53.80787211 -1 43 C-3.16299379 33.32412245 -8.225644 25.4674202 -16.25 19.625 C-33.10079726 9.30818535 -53.92295897 13.48496919 -66 29 Z " fill="#888888" transform="translate(348,94)"/>
</svg>
